<?xml version="1.0" encoding="UTF-8"?>
<svg xmlns="http://www.w3.org/2000/svg" xmlns:xlink="http://www.w3.org/1999/xlink" width="15pt" height="13pt" viewBox="0 0 15 13" version="1.1">
<g id="surface1">
<path style=" stroke:none;fill-rule:nonzero;fill:rgb(100%,100%,100%);fill-opacity:1;" d="M 13.886719 8.148438 L 11.734375 6.859375 L 10.167969 6.859375 L 12.644531 8.441406 L 10.167969 8.410156 C 10.097656 8.410156 9.992188 8.46875 9.960938 8.519531 L 9.269531 9.960938 L 5.242188 9.960938 L 4.554688 8.519531 C 4.523438 8.46875 4.421875 8.410156 4.347656 8.410156 L 1.882812 8.410156 L 4.347656 6.859375 L 2.78125 6.859375 L 0.632812 8.148438 C 0.296875 8.320312 0.09375 8.726562 0.179688 9.042969 L 0.582031 10.9375 C 0.667969 11.253906 1.070312 11.511719 1.46875 11.511719 L 13.042969 11.511719 C 13.441406 11.511719 13.84375 11.253906 13.929688 10.9375 L 14.328125 9.042969 C 14.421875 8.726562 14.21875 8.320312 13.886719 8.148438 Z M 10.910156 4.261719 C 10.933594 4.242188 10.949219 4.210938 10.929688 4.1875 C 10.921875 4.15625 10.890625 4.140625 10.855469 4.140625 L 8.601562 4.140625 L 8.609375 1.242188 C 8.609375 1.1875 8.585938 1.136719 8.535156 1.097656 C 8.488281 1.054688 8.421875 1.03125 8.359375 1.03125 L 6.15625 1.03125 C 6.089844 1.03125 6.027344 1.054688 5.984375 1.097656 C 5.929688 1.136719 5.910156 1.1875 5.910156 1.242188 L 5.917969 4.140625 L 3.660156 4.140625 C 3.625 4.140625 3.597656 4.15625 3.578125 4.1875 C 3.570312 4.210938 3.578125 4.242188 3.605469 4.261719 L 7.09375 7.070312 C 7.140625 7.097656 7.191406 7.121094 7.253906 7.121094 C 7.316406 7.121094 7.378906 7.097656 7.425781 7.070312 Z M 10.910156 4.261719 "/>
</g>
</svg>
